<svg width="400" height="400" viewBox="0 0 400 400" xmlns="http://www.w3.org/2000/svg">
  <!-- Outer Hexagon -->
  <polygon points="200,20 340,110 340,290 200,380 60,290 60,110" fill="none" stroke="white" stroke-width="2"/>
  
  <!-- Inner Star Pattern -->
  <!-- Vertical Line -->
  <line x1="200" y1="20" x2="200" y2="380" stroke="white" stroke-width="2"/>
  
  <!-- Horizontal Line -->
  <line x1="60" y1="200" x2="340" y2="200" stroke="white" stroke-width="2"/>
  
  <!-- Diagonal Lines from Top -->
  <line x1="200" y1="20" x2="60" y2="290" stroke="white" stroke-width="2"/>
  <line x1="200" y1="20" x2="340" y2="290" stroke="white" stroke-width="2"/>
  
  <!-- Diagonal Lines from Bottom -->
  <line x1="200" y1="380" x2="60" y2="110" stroke="white" stroke-width="2"/>
  <line x1="200" y1="380" x2="340" y2="110" stroke="white" stroke-width="2"/>
  
  <!-- Additional Internal Lines -->
  <line x1="60" y1="110" x2="340" y2="110" stroke="white" stroke-width="2"/>
  <line x1="60" y1="290" x2="340" y2="290" stroke="white" stroke-width="2"/>
  <line x1="60" y1="110" x2="60" y2="290" stroke="white" stroke-width="2"/>
  <line x1="340" y1="110" x2="340" y2="290" stroke="white" stroke-width="2"/>
  
  <!-- Inner Hexagon -->
  <polygon points="200,110 270,155 270,245 200,290 130,245 130,155" fill="none" stroke="white" stroke-width="2"/>
  
  <!-- Star Lines -->
  <line x1="130" y1="155" x2="270" y2="245" stroke="white" stroke-width="2"/>
  <line x1="130" y1="245" x2="270" y2="155" stroke="white" stroke-width="2"/>
  <line x1="200" y1="110" x2="200" y2="290" stroke="white" stroke-width="2"/>
  <line x1="130" y1="200" x2="270" y2="200" stroke="white" stroke-width="2"/>
</svg>
